<svg width="40" height="40" viewBox="0 0 40 40" fill="none" xmlns="http://www.w3.org/2000/svg">
                <path fill-rule="evenodd" clip-rule="evenodd" d="M11.6784 25.7311C11.2501 25.6226 11.0468 25.2068 11.2244 24.8022L16.2219 13.4177C16.3725 13.0746 16.7487 12.8499 17.1207 12.8556C17.4928 12.8499 17.8689 13.0746 18.0195 13.4177L23.0171 24.8022C23.1947 25.2068 22.9914 25.6226 22.5631 25.7311C22.1348 25.8395 21.6436 25.5994 21.466 25.1948L19.9752 21.7988H14.2663L12.7755 25.1948C12.5979 25.5994 12.1067 25.8395 11.6784 25.7311ZM19.2728 20.1988L17.1207 15.2963L14.9686 20.1988H19.2728ZM25.9999 25.8006C25.5581 25.8006 25.1999 25.4425 25.1999 25.0006L25.1999 18.0006C25.1999 17.5588 25.5581 17.2006 25.9999 17.2006C26.4418 17.2006 26.7999 17.5588 26.7999 18.0006V25.0006C26.7999 25.4424 26.4418 25.8006 25.9999 25.8006ZM25.1999 15.0006C25.1999 15.4425 25.5581 15.8006 25.9999 15.8006C26.4418 15.8006 26.7999 15.4425 26.7999 15.0006V14.0006C26.7999 13.5588 26.4418 13.2006 25.9999 13.2006C25.5581 13.2006 25.1999 13.5588 25.1999 14.0006V15.0006Z" fill="black" fill-opacity="0.4"></path>
              </svg>