<svg width="211" height="8" viewBox="0 0 211 8" fill="none" xmlns="http://www.w3.org/2000/svg">
<circle cx="2" cy="4" r="2" transform="rotate(-90 2 4)" fill="#A8B6C8"/>
<path d="M4 3.5C3.72386 3.5 3.5 3.72386 3.5 4C3.5 4.27614 3.72386 4.5 4 4.5V3.5ZM210.354 4.35355C210.549 4.15829 210.549 3.84171 210.354 3.64645L207.172 0.464466C206.976 0.269204 206.66 0.269204 206.464 0.464466C206.269 0.659728 206.269 0.976311 206.464 1.17157L209.293 4L206.464 6.82843C206.269 7.02369 206.269 7.34027 206.464 7.53553C206.66 7.7308 206.976 7.7308 207.172 7.53553L210.354 4.35355ZM4 4.5L210 4.5V3.5L4 3.5V4.5Z" fill="#DADFE7"/>
</svg>
