<svg width="28" height="20" viewBox="0 0 28 20" fill="none" xmlns="http://www.w3.org/2000/svg">
<g id="Frame 1437253399">
<g id="Vector">
<path d="M6.24164 10.5742C5.92922 10.2617 5.92922 9.75522 6.24164 9.4428C6.55406 9.13038 7.06059 9.13038 7.37301 9.4428L13.0219 15.0917C13.3343 15.4041 13.3343 15.9107 13.0219 16.2231C12.7095 16.5355 12.203 16.5355 11.8906 16.2231L6.24164 10.5742Z" fill="black"/>
<path d="M6.23431 10.5659C5.9219 10.2534 5.9219 9.74692 6.23431 9.4345L11.8906 3.77826C12.203 3.46584 12.7095 3.46584 13.0219 3.77826C13.3343 4.09068 13.3343 4.59721 13.0219 4.90963L7.36569 10.5659C7.05327 10.8783 6.54673 10.8783 6.23431 10.5659Z" fill="black"/>
</g>
<rect id="Rectangle 92412" x="6" y="9.2002" width="16" height="1.6" rx="0.8" fill="black"/>
</g>
</svg>
