<svg width="18" height="18" viewBox="0 0 18 18" fill="none" xmlns="http://www.w3.org/2000/svg">
<circle cx="4.5" cy="9.75" r="0.75" fill="#B9C1CC" stroke="#B9C1CC" stroke-width="0.3"/>
<circle cx="4.5" cy="12.7498" r="0.75" fill="#B9C1CC" stroke="#B9C1CC" stroke-width="0.3"/>
<circle cx="7.5" cy="9.75" r="0.75" fill="#B9C1CC" stroke="#B9C1CC" stroke-width="0.3"/>
<circle cx="7.5" cy="12.7498" r="0.75" fill="#B9C1CC" stroke="#B9C1CC" stroke-width="0.3"/>
<circle cx="10.5" cy="9.75" r="0.75" fill="#B9C1CC" stroke="#B9C1CC" stroke-width="0.3"/>
<circle cx="10.5" cy="12.7498" r="0.75" fill="#B9C1CC" stroke="#B9C1CC" stroke-width="0.3"/>
<circle cx="13.5" cy="9.75" r="0.75" fill="#B9C1CC" stroke="#B9C1CC" stroke-width="0.3"/>
<circle cx="13.5" cy="12.7498" r="0.75" fill="#B9C1CC" stroke="#B9C1CC" stroke-width="0.3"/>
<path d="M13.4001 0.75C13.4001 0.391015 13.1091 0.1 12.7501 0.1C12.3911 0.1 12.1001 0.391015 12.1001 0.75H13.4001ZM12.1001 3.75C12.1001 4.10898 12.3911 4.4 12.7501 4.4C13.1091 4.4 13.4001 4.10898 13.4001 3.75H12.1001ZM5.90003 0.75C5.90003 0.391015 5.60902 0.1 5.25003 0.1C4.89105 0.1 4.60003 0.391015 4.60003 0.75H5.90003ZM4.60003 3.75C4.60003 4.10898 4.89105 4.4 5.25003 4.4C5.60902 4.4 5.90003 4.10898 5.90003 3.75H4.60003ZM3.50012 2.90018H14.5001V1.60018H3.50012V2.90018ZM15.8501 4.25018V14.5002H17.1501V4.25018H15.8501ZM14.5001 15.8502H3.50012V17.1502H14.5001V15.8502ZM2.15012 14.5002V4.25018H0.850122V14.5002H2.15012ZM3.50012 15.8502C2.75454 15.8502 2.15012 15.2458 2.15012 14.5002H0.850122C0.850122 15.9637 2.03657 17.1502 3.50012 17.1502V15.8502ZM15.8501 14.5002C15.8501 15.2458 15.2457 15.8502 14.5001 15.8502V17.1502C15.9637 17.1502 17.1501 15.9637 17.1501 14.5002H15.8501ZM14.5001 2.90018C15.2457 2.90018 15.8501 3.5046 15.8501 4.25018H17.1501C17.1501 2.78663 15.9637 1.60018 14.5001 1.60018V2.90018ZM3.50012 1.60018C2.03657 1.60018 0.850122 2.78663 0.850122 4.25018H2.15012C2.15012 3.5046 2.75454 2.90018 3.50012 2.90018V1.60018ZM1.50012 6.65037H16.5001V5.35037H1.50012V6.65037ZM12.1001 0.75V3.75H13.4001V0.75H12.1001ZM4.60003 0.75V3.75H5.90003V0.75H4.60003Z" fill="#B9C1CC"/>
</svg>
