<svg width="28" height="20" viewBox="0 0 28 20" fill="none" xmlns="http://www.w3.org/2000/svg">
<g id="Frame 1437253399">
<path id="Vector" d="M16.289 8.17351L16.2947 8.17939L16.3005 8.18516C16.3006 8.18525 16.3007 8.18531 16.301 8.18539C16.3029 8.18605 16.3089 8.18817 16.3104 8.22736C16.3129 8.29274 16.2952 8.43413 16.1883 8.66981C15.972 9.14712 15.4814 9.81446 14.6356 10.6591C13.7897 11.5036 13.1213 11.9935 12.6429 12.2097C12.4067 12.3165 12.2646 12.3344 12.1983 12.3319C12.1581 12.3304 12.1555 12.324 12.1547 12.322C12.1546 12.3217 12.1546 12.3216 12.1545 12.3215C11.5989 11.7667 10.8381 11.6794 10.1925 11.8092C9.5443 11.9395 8.90528 12.3 8.40699 12.8117C7.6066 13.6121 7.19448 14.3628 7.20005 15.1027C7.20576 15.8599 7.64964 16.3504 7.89903 16.5995C8.26152 16.9614 9.23299 17.8781 10.9712 17.7947C12.6606 17.7136 14.8752 16.696 17.7889 13.7868C20.705 10.888 21.7179 8.66907 21.7952 6.97456C21.8745 5.23565 20.9606 4.26008 20.6071 3.90716C20.3653 3.66564 19.8748 3.21161 19.1158 3.20022C18.3681 3.18899 17.6126 3.60689 16.8103 4.42116C16.3089 4.92263 15.941 5.55373 15.8019 6.20082C15.6623 6.84982 15.7429 7.60551 16.289 8.17351Z" stroke="black" stroke-width="1.6"/>
</g>
</svg>
