<svg width="31" height="26" viewBox="0 0 31 26" fill="none" xmlns="http://www.w3.org/2000/svg">
<g id="Group 41448">
<path id="Vector" d="M7.2263 16.416L6.93108 16.0886L6.49023 16.0857L2.61921 16.0601C2.13823 16.0569 1.75 15.6661 1.75 15.1851V10.7438C1.75 10.2605 2.14175 9.86877 2.625 9.86877H6.52917H6.97417L7.27206 9.53819L13.0702 3.10362V22.8975L7.2263 16.416Z" stroke="black" stroke-opacity="0.72" stroke-width="2"/>
<g id="Group 41447">
<path id="Vector_2" d="M20.6133 9.15738C20.8741 9.32867 21.1159 9.52724 21.3347 9.74972C21.763 10.1766 22.1027 10.6837 22.3346 11.2421C22.5664 11.8005 22.6857 12.3992 22.6857 13.0038C22.6857 13.6084 22.5664 14.2071 22.3346 14.7655C22.1027 15.3239 21.763 15.8311 21.3347 16.2579C21.1121 16.4761 20.8707 16.6744 20.6133 16.8503" stroke="black" stroke-opacity="0.72" stroke-width="2" stroke-linecap="round" stroke-linejoin="round"/>
<path id="Vector_3" d="M24.8281 4.13037C25.229 4.43688 25.6096 4.76919 25.9673 5.12521C27.0035 6.16055 27.8256 7.38997 28.3865 8.74319C28.9474 10.0964 29.236 11.5469 29.236 13.0118C29.236 14.4766 28.9474 15.9271 28.3865 17.2803C27.8256 18.6335 27.0035 19.863 25.9673 20.8983C25.6181 21.2473 25.2478 21.5744 24.8585 21.8779" stroke="black" stroke-opacity="0.72" stroke-width="2" stroke-linecap="round" stroke-linejoin="round"/>
</g>
</g>
</svg>
