<svg width="28" height="22" viewBox="0 0 28 22" fill="none" xmlns="http://www.w3.org/2000/svg">
<g id="Group 1437253001">
<path id="Union" d="M8.0767 2.44279L7.35175 2.10448V2.10448L8.0767 2.44279ZM7 4.75V5.55H7.50949L7.72495 5.08831L7 4.75ZM21 4.75L20.2751 5.08831L20.4905 5.55H21V4.75ZM19.9233 2.44279L19.1984 2.78109V2.78109L19.9233 2.44279ZM8.80165 2.78109C9.08096 2.18257 9.68167 1.8 10.3422 1.8V0.2C9.06003 0.2 7.89395 0.942632 7.35175 2.10448L8.80165 2.78109ZM7.72495 5.08831L8.80165 2.78109L7.35175 2.10448L6.27505 4.41169L7.72495 5.08831ZM4 5.55H7V3.95H4V5.55ZM2.3 7.25C2.3 6.31112 3.06112 5.55 4 5.55V3.95C2.17746 3.95 0.7 5.42746 0.7 7.25H2.3ZM2.3 18.5V7.25H0.7V18.5H2.3ZM4 20.2C3.06112 20.2 2.3 19.4389 2.3 18.5H0.7C0.7 20.3225 2.17746 21.8 4 21.8V20.2ZM24 20.2H4V21.8H24V20.2ZM25.7 18.5C25.7 19.4389 24.9389 20.2 24 20.2V21.8C25.8225 21.8 27.3 20.3225 27.3 18.5H25.7ZM25.7 7.25V18.5H27.3V7.25H25.7ZM24 5.55C24.9389 5.55 25.7 6.31112 25.7 7.25H27.3C27.3 5.42746 25.8225 3.95 24 3.95V5.55ZM21 5.55H24V3.95H21V5.55ZM19.1984 2.78109L20.2751 5.08831L21.7249 4.41169L20.6482 2.10448L19.1984 2.78109ZM17.6578 1.8C18.3183 1.8 18.919 2.18257 19.1984 2.78109L20.6482 2.10448C20.1061 0.942632 18.94 0.2 17.6578 0.2V1.8ZM10.3422 1.8H17.6578V0.2H10.3422V1.8Z" fill="black" fill-opacity="0.72"/>
<circle id="Ellipse 18241" cx="14" cy="12.25" r="4.2" stroke="black" stroke-opacity="0.72" stroke-width="1.6"/>
</g>
</svg>
