<svg width="46" height="46" viewBox="0 0 46 46" fill="none" xmlns="http://www.w3.org/2000/svg">
<path d="M23.9999 24L22.0658 21.8241C21.3626 21.033 21.011 20.6374 20.6076 20.5144C20.2542 20.4066 19.8734 20.433 19.5383 20.5886C19.1558 20.7662 18.8622 21.2066 18.2751 22.0873L15.4875 26.2687C14.6794 27.4808 14.2754 28.0868 14.3054 28.5894C14.3315 29.0272 14.548 29.4317 14.8978 29.6963C15.2993 30 16.0276 30 17.4844 30H27.7109C29.3908 30 30.2307 30 30.6455 29.6598C31.0059 29.3643 31.2084 28.918 31.1935 28.4521C31.1764 27.9159 30.6233 27.2838 29.5171 26.0196L27.6892 23.9306C27.1018 23.2593 26.8081 22.9237 26.4564 22.7909C26.1472 22.6743 25.8082 22.663 25.4919 22.7588C25.1321 22.8679 24.8167 23.1832 24.186 23.814L23.9999 24Z" fill="#BFC6D2"/>
<path d="M27.9999 18C27.9999 19.1046 27.1045 20 25.9999 20C24.8954 20 23.9999 19.1046 23.9999 18C23.9999 16.8954 24.8954 16 25.9999 16C27.1045 16 27.9999 16.8954 27.9999 18Z" fill="#BFC6D2"/>
</svg>
