<svg width="22" height="18" viewBox="0 0 22 18" fill="none" xmlns="http://www.w3.org/2000/svg">
<g id="Group 1437253001">
<path id="Union" d="M6.26136 2.15423L6.98631 2.49254V2.49254L6.26136 2.15423ZM5.4 4V4.8H5.90949L6.12495 4.33831L5.4 4ZM16.6 4L15.8751 4.33831L16.0905 4.8H16.6V4ZM15.7386 2.15423L15.0137 2.49254L15.7386 2.15423ZM6.98631 2.49254C7.18347 2.07005 7.6075 1.8 8.07373 1.8V0.2C6.98586 0.2 5.99646 0.83011 5.53641 1.81592L6.98631 2.49254ZM6.12495 4.33831L6.98631 2.49254L5.53641 1.81592L4.67505 3.66169L6.12495 4.33831ZM3 4.8H5.4V3.2H3V4.8ZM1.8 6C1.8 5.33726 2.33726 4.8 3 4.8V3.2C1.4536 3.2 0.2 4.4536 0.2 6H1.8ZM1.8 15V6H0.2V15H1.8ZM3 16.2C2.33726 16.2 1.8 15.6627 1.8 15H0.2C0.2 16.5464 1.4536 17.8 3 17.8V16.2ZM19 16.2H3V17.8H19V16.2ZM20.2 15C20.2 15.6627 19.6627 16.2 19 16.2V17.8C20.5464 17.8 21.8 16.5464 21.8 15H20.2ZM20.2 6V15H21.8V6H20.2ZM19 4.8C19.6627 4.8 20.2 5.33726 20.2 6H21.8C21.8 4.4536 20.5464 3.2 19 3.2V4.8ZM16.6 4.8H19V3.2H16.6V4.8ZM15.0137 2.49254L15.8751 4.33831L17.3249 3.66169L16.4636 1.81592L15.0137 2.49254ZM13.9263 1.8C14.3925 1.8 14.8165 2.07005 15.0137 2.49254L16.4636 1.81592C16.0035 0.830112 15.0141 0.2 13.9263 0.2V1.8ZM8.07373 1.8H13.9263V0.2H8.07373V1.8Z" fill="black"/>
<circle id="Ellipse 18241" cx="11" cy="10" r="3.2" stroke="black" stroke-width="1.6"/>
</g>
</svg>
