<svg width="32" height="32" viewBox="0 0 32 32" fill="none" xmlns="http://www.w3.org/2000/svg">
<g id="Icons">
<path id="Union" fill-rule="evenodd" clip-rule="evenodd" d="M16.8 6C16.3582 6 16 6.35817 16 6.8C16 7.24183 16.3582 7.6 16.8 7.6H23.2623L7.6001 23.2622L7.6001 16.8C7.6001 16.3582 7.24193 16 6.8001 16C6.35827 16 6.0001 16.3582 6.0001 16.8L6.0001 25.1874L6 25.2C6 25.6418 6.35817 26 6.8 26H6.8001H15.2C15.6418 26 16 25.6418 16 25.2C16 24.7582 15.6418 24.4 15.2 24.4H8.72505L24.3999 8.72514V15.2C24.3999 15.6418 24.7581 16 25.1999 16C25.6417 16 25.9999 15.6418 25.9999 15.2V6.8126L26 6.8C26 6.35817 25.6418 6 25.2 6H25.1999H16.8Z" fill="black" fill-opacity="0.6"/>
</g>
</svg>
