<svg width="8" height="16" viewBox="0 0 8 16" fill="none" xmlns="http://www.w3.org/2000/svg">
<path d="M5.89132 1.81818C5.89132 2.82233 5.0773 3.63636 4.07315 3.63636C3.06899 3.63636 2.25497 2.82233 2.25497 1.81818C2.25497 0.814026 3.06899 0 4.07315 0C5.0773 0 5.89132 0.814026 5.89132 1.81818Z" fill="#B9C1CC"/>
<path d="M4.00282 10.9091C4.54586 10.918 4.68204 13.7712 4.71619 15.2017C4.72671 15.6425 5.08508 15.9999 5.52605 16C5.96824 16 6.32569 15.6411 6.31725 15.199C6.30244 14.4232 6.26687 13.2389 6.18216 12.3636C6.01575 10.644 5.45482 7 5.45482 7L6.54893 10.1882C6.73818 10.5667 7.22084 10.6866 7.5652 10.4406C7.78572 10.2831 7.89352 10.0122 7.83486 9.74767C7.64286 8.88154 7.17295 6.92708 6.61853 5.81813C5.89132 4.36358 4.72755 4.3636 4.00028 4.36363C3.273 4.3636 2.10932 4.36373 1.38217 5.81817C0.827749 6.92712 0.357832 8.88158 0.165832 9.74771C0.107181 10.0123 0.214977 10.2832 0.435501 10.4407C0.77986 10.6866 1.26251 10.5668 1.45177 10.1883L2.54588 7.00004C2.54588 7.00004 1.98494 10.6441 1.81853 12.3636C1.73383 13.2389 1.69826 14.4232 1.68345 15.199C1.67501 15.6411 2.03246 16 2.47465 16C2.91561 16 3.27398 15.6426 3.28451 15.2017C3.31871 13.769 3.45526 10.9091 4.00042 10.9091L4.00282 10.9091Z" fill="#B9C1CC"/>
</svg>
