<svg width="32" height="32" viewBox="0 0 32 32" fill="none" xmlns="http://www.w3.org/2000/svg">
<path d="M0.872559 16C0.872559 7.16344 7.70236 0 16.1274 0C24.5523 0 31.3821 7.16344 31.3821 16C31.3821 24.8366 24.5523 32 16.1274 32C7.70236 32 0.872559 24.8366 0.872559 16Z" fill="#F7AC00"/>
<path d="M21.2071 12.3724C21.1061 12.3724 21.0211 12.3754 20.9732 12.3816C20.9174 12.4986 20.835 12.6556 20.7128 12.8743C22.6156 12.8743 24.3432 13.0559 26.254 13.453L25.7145 14.0565C23.9897 13.7024 22.5572 13.5609 20.7314 13.5609C20.4656 13.5609 20.4098 13.5609 20.3461 13.5639C20.2822 13.6747 20.1387 13.8902 19.9952 14.0904C20.1573 14.0781 20.471 14.0719 20.9041 14.0719C22.4057 14.0719 23.8089 14.2012 25.3318 14.4845L24.7923 15.091C23.6335 14.8816 22.217 14.7616 20.9466 14.7616C20.4948 14.7616 19.9819 14.78 19.5221 14.8108C19.4185 14.9493 19.1474 15.2881 19.0651 15.3927C19.6736 15.3188 20.3434 15.2849 21.1407 15.2849C22.2755 15.2849 23.3599 15.3712 24.3857 15.5467L23.8461 16.147C23.1153 16.0424 22.2276 15.9808 21.4437 15.9808C19.4212 15.9808 17.8265 16.4888 16.1788 17.6556C17.7495 19.6076 20.3221 20.8422 22.815 20.8422H23.0489L22.1772 21.8184C18.5813 21.0362 14.7968 19.2043 11.5997 16.695C8.52473 14.2905 7.44839 13.5793 5.04853 12.3509L5.03259 11.6365L6.65642 12.4432L7.20922 11.9352L12.5112 14.7493L12.1657 15.0694L9.44429 13.6994L9.17587 13.9426L10.5898 14.857C11.7831 15.6268 12.692 15.9715 13.5318 15.9715C15.3682 15.9715 17.016 14.4629 18.079 11.8121C18.879 11.6919 19.7321 11.6365 20.758 11.6365C22.8628 11.6365 24.9065 11.8705 27.2214 12.3724L26.658 13.0035C25.2175 12.6556 22.7698 12.3724 21.2071 12.3724Z" fill="#040927"/>
</svg>
