<svg width="8" height="13" viewBox="0 0 8 13" fill="none" xmlns="http://www.w3.org/2000/svg">
<path d="M2.16177 1.83823C2.16177 0.823006 2.98477 0 4 0C5.01523 0 5.83823 0.823006 5.83823 1.83823C5.83823 2.85346 5.01523 3.67647 4 3.67647C2.98477 3.67647 2.16177 2.85346 2.16177 1.83823Z" fill="#B9C1CC"/>
<path d="M1.24594 4.04054C2.32007 4.41181 3.41449 4.41181 4 4.41181C4.58551 4.41181 5.67993 4.41181 6.75406 4.04054C7.19051 3.88969 7.7111 4.03373 7.91762 4.44676C8.11101 4.83355 7.95416 5.30681 7.54921 5.45854C7.31549 5.54611 7.09928 5.61583 6.904 5.67879C6.19984 5.90584 5.76779 6.04515 5.76779 6.61769C5.76779 7.3698 6.03707 7.77088 6.3002 8.16279C6.55156 8.53718 6.7973 8.90319 6.7973 9.55885L6.79732 11.7652C6.79733 12.1713 6.46814 12.5 6.06205 12.5C5.65597 12.5 5.32512 12.1701 5.26791 11.7681C5.13494 10.8337 4.89427 9.559 4 9.55887C3.10573 9.559 2.86506 10.8337 2.73209 11.7681C2.67488 12.1701 2.34403 12.5 1.93795 12.5C1.53186 12.5 1.20267 12.1713 1.20268 11.7652L1.2027 9.55885C1.2027 8.90319 1.44844 8.53718 1.6998 8.16279C1.96293 7.77088 2.23221 7.3698 2.23221 6.61769C2.23221 6.04515 1.80016 5.90584 1.096 5.67879C0.900716 5.61583 0.684509 5.54611 0.450785 5.45854C0.045837 5.30681 -0.111013 4.83355 0.08238 4.44676C0.288897 4.03373 0.809489 3.88969 1.24594 4.04054Z" fill="#B9C1CC"/>
</svg>
