<svg width="19" height="18" viewBox="0 0 19 18" fill="none" xmlns="http://www.w3.org/2000/svg">
<path d="M18.8232 10.4337C18.8694 10.5039 18.9068 10.5798 18.9344 10.6592C19.1195 11.1455 18.9044 11.5174 18.3976 11.4994C17.5389 11.4994 16.6848 11.3755 15.8598 11.1372C11.0264 9.74146 6.19586 8.47448 1.35287 6.7589C0.926695 6.60793 0.658363 6.18698 0.697055 5.73651L0.99109 2.31323L2.51027 2.98725L2.99208 4.91882C3.00534 4.93604 3.02222 4.95021 3.04149 4.96028C3.14805 4.99142 3.25447 5.02245 3.36103 5.05358C4.65071 5.43039 5.9404 5.80719 7.24669 6.19793L7.49169 0.5L9.28813 1.44741L10.7006 7.21471L10.775 7.24143C12.886 7.85037 14.9953 8.47138 17.1029 9.10456C17.8133 9.33411 18.4218 9.80411 18.8232 10.4337Z" fill="#B9C1CC"/>
<path d="M3.63148 15.5H15.6315V17.5H3.63148V15.5Z" fill="#B9C1CC"/>
</svg>
