<svg width="26" height="39" viewBox="0 0 26 39" fill="none" xmlns="http://www.w3.org/2000/svg">
<path d="M12.9913 1.00001C9.81096 1.00001 6.76055 2.26721 4.51172 4.52284C2.26289 6.77847 1 9.83777 1 13.0277C1.06008 15.8857 2.05306 18.1595 3.72615 20.9374C5.39924 23.7152 12.9997 36.287 12.9997 36.287C12.9997 36.287 20.6001 23.7152 22.2732 20.9374C23.9462 18.1595 24.9397 15.8857 25 13.0277C25 11.4468 24.6892 9.88133 24.0855 8.42094C23.4818 6.96055 22.5966 5.63387 21.4813 4.51677C20.366 3.39966 19.0424 2.51406 17.5855 1.91062C16.1287 1.30718 14.5675 0.997754 12.9913 1.00001Z" stroke="#D9D9D9" stroke-width="2"/>
<path d="M12.9093 17.9709C15.2582 17.9709 17.1624 16.0326 17.1624 13.6417C17.1624 11.2507 15.2582 9.3125 12.9093 9.3125C10.5604 9.3125 8.65625 11.2507 8.65625 13.6417C8.65625 16.0326 10.5604 17.9709 12.9093 17.9709Z" stroke="#D9D9D9" stroke-width="2"/>
</svg>
