<svg width="20" height="20" viewBox="0 0 20 20" fill="none" xmlns="http://www.w3.org/2000/svg">
<g clip-path="url(#clip0_131_9430)">
<path fill-rule="evenodd" clip-rule="evenodd" d="M10 20C15.5228 20 20 15.5228 20 10C20 4.47715 15.5228 0 10 0C4.47715 0 0 4.47715 0 10C0 15.5228 4.47715 20 10 20ZM5.33098 10.8136L8.07397 11.5286C8.26867 11.5793 8.42071 11.7314 8.47146 11.926L9.1864 14.669C9.45856 15.7132 10.9094 15.7957 11.2981 14.7891L14.4413 6.65074C14.7053 5.96711 14.0329 5.29471 13.3493 5.55874L5.21091 8.70187C4.20427 9.09064 4.28676 10.5414 5.33098 10.8136Z" fill="#B9C1CC"/>
</g>
<defs>
<clipPath id="clip0_131_9430">
<rect width="20" height="20" fill="white"/>
</clipPath>
</defs>
</svg>
