<svg xmlns="http://www.w3.org/2000/svg" viewBox="0 0 40 40" width="40" height="40" preserveAspectRatio="xMidYMid meet" style="width: 100%; height: 100%; transform: translate3d(0px, 0px, 0px);"><defs><clipPath id="__lottie_element_2"><rect width="40" height="40" x="0" y="0"></rect></clipPath></defs><g clip-path="url(#__lottie_element_2)"><g transform="matrix(-0.8675398230552673,0.4973676800727844,-0.4973676800727844,-0.8675398230552673,47.11048126220703,27.702892303466797)" opacity="1" style="display: block;"><g opacity="1" transform="matrix(1,0,0,1,19.84600067138672,20.24799919128418)"><path fill="rgb(0,0,0)" fill-opacity="1" d=" M15.37399959564209,-13.369999885559082 C15.37399959564209,-13.369999885559082 19.266000747680664,-6.629000186920166 19.266000747680664,-6.629000186920166 C19.57200050354004,-6.098999977111816 19.391000747680664,-5.421000003814697 18.861000061035156,-5.114999771118164 C18.861000061035156,-5.114999771118164 -13.861000061035156,13.776000022888184 -13.861000061035156,13.776000022888184 C-14.390999794006348,14.081999778747559 -15.067999839782715,13.901000022888184 -15.37399959564209,13.371000289916992 C-15.37399959564209,13.371000289916992 -19.266000747680664,6.630000114440918 -19.266000747680664,6.630000114440918 C-19.57200050354004,6.099999904632568 -19.391000747680664,5.421999931335449 -18.861000061035156,5.116000175476074 C-18.861000061035156,5.116000175476074 13.861000061035156,-13.776000022888184 13.861000061035156,-13.776000022888184 C14.390999794006348,-14.081999778747559 15.067999839782715,-13.899999618530273 15.37399959564209,-13.369999885559082z"></path></g><g opacity="1" transform="matrix(1,0,0,1,20.00200080871582,20.25)"><path fill="rgb(0,0,0)" fill-opacity="1" d=" M-3.8919999599456787,-20 C-3.8919999599456787,-20 3.8910000324249268,-20 3.8910000324249268,-20 C4.502999782562256,-20 5,-19.503999710083008 5,-18.892000198364258 C5,-18.892000198364258 5,18.892000198364258 5,18.892000198364258 C5,19.503999710083008 4.502999782562256,20 3.8910000324249268,20 C3.8910000324249268,20 -3.8919999599456787,20 -3.8919999599456787,20 C-4.504000186920166,20 -5,19.503999710083008 -5,18.892000198364258 C-5,18.892000198364258 -5,-18.892000198364258 -5,-18.892000198364258 C-5,-19.503999710083008 -4.504000186920166,-20 -3.8919999599456787,-20z"></path></g><g opacity="1" transform="matrix(1,0,0,1,19.822999954223633,20.25200080871582)"><path fill="rgb(0,0,0)" fill-opacity="1" d=" M-19.266000747680664,-6.630000114440918 C-19.266000747680664,-6.630000114440918 -15.37399959564209,-13.371000289916992 -15.37399959564209,-13.371000289916992 C-15.067999839782715,-13.901000022888184 -14.390999794006348,-14.081999778747559 -13.861000061035156,-13.776000022888184 C-13.861000061035156,-13.776000022888184 18.861000061035156,5.114999771118164 18.861000061035156,5.114999771118164 C19.391000747680664,5.421000003814697 19.57200050354004,6.098999977111816 19.266000747680664,6.629000186920166 C19.266000747680664,6.629000186920166 15.37399959564209,13.369999885559082 15.37399959564209,13.369999885559082 C15.067999839782715,13.899999618530273 14.390999794006348,14.081999778747559 13.861000061035156,13.776000022888184 C13.861000061035156,13.776000022888184 -18.861000061035156,-5.116000175476074 -18.861000061035156,-5.116000175476074 C-19.391000747680664,-5.421999931335449 -19.57200050354004,-6.099999904632568 -19.266000747680664,-6.630000114440918z"></path></g></g></g></svg>