<svg width="40" height="40" viewBox="0 0 40 40" fill="none" xmlns="http://www.w3.org/2000/svg">
              <path fill-rule="evenodd" clip-rule="evenodd" d="M27.4346 20.5645C27.7471 20.2521 27.747 19.7455 27.4346 19.4331L24.0405 16.039C23.7281 15.7266 23.2216 15.7266 22.9091 16.039C22.5967 16.3514 22.5967 16.858 22.9091 17.1704L24.9368 19.198L16.4001 19.198C15.9583 19.198 15.6001 19.5562 15.6001 19.998C15.6001 20.4398 15.9583 20.798 16.4001 20.798L24.9384 20.798L22.9091 22.8272C22.5967 23.1396 22.5967 23.6462 22.9091 23.9586C23.2216 24.271 23.7281 24.271 24.0405 23.9586L27.4346 20.5645Z" fill="black" fill-opacity="0.4"></path>
              <path d="M18 13L13.6 13C12.7163 13 12 13.7163 12 14.6L12 25.4C12 26.2837 12.7163 27 13.6 27L18 27" stroke="black" stroke-opacity="0.4" stroke-width="1.6" stroke-linecap="round"></path>
            </svg>