<svg width="12" height="22" viewBox="0 0 12 22" fill="none" xmlns="http://www.w3.org/2000/svg">
<path d="M6 5C7.10457 5 8 4.10457 8 3C8 1.89543 7.10457 1 6 1C4.89543 1 4 1.89543 4 3C4 4.10457 4.89543 5 6 5Z" fill="#202543"/>
<path d="M6 6C5.02885 6 2.94087 6.10345 2.35817 7.2069C1.82208 8.2221 1.4093 9.70431 1.00637 12.6202C0.948176 13.0414 1.29623 13.4138 1.7448 13.4138C2.10145 13.4138 2.40729 13.1744 2.48674 12.8451C3.06098 10.4656 3.8149 9.27586 3.8149 9.27586C3.57212 10.4253 3.08654 13.2759 3.08654 15.4828L3.07755 20.1274C3.07755 20.6097 3.49055 21 4 21C4.47003 21 4.86412 20.6667 4.90512 20.2233C4.91694 20.0955 4.93031 19.963 4.94406 19.8267C4.96385 19.6306 4.98443 19.4267 5.00231 19.2177L5.01119 19.1139C5.20319 16.8684 5.44846 14 6 14C6.55154 14 6.79681 16.8684 6.98881 19.1139L6.99769 19.2177C7.01557 19.4267 7.03615 19.6306 7.05594 19.8267C7.06969 19.963 7.08306 20.0955 7.09488 20.2233C7.13588 20.6667 7.52997 21 8 21C8.50945 21 8.92245 20.6097 8.92245 20.1274L8.91346 15.4828C8.91346 13.2759 8.42788 10.4253 8.1851 9.27586C8.1851 9.27586 8.93902 10.4656 9.51326 12.8451C9.59271 13.1744 9.89855 13.4138 10.2552 13.4138C10.7038 13.4138 11.0518 13.0414 10.9936 12.6202C10.5907 9.70431 10.1779 8.2221 9.64183 7.2069C9.05913 6.10345 6.97115 6 6 6Z" fill="#202543"/>
</svg>
