<svg width="18" height="24" viewBox="0 0 18 24" fill="none" xmlns="http://www.w3.org/2000/svg">
<g id="Group 1437252916">
<path id="Union" fill-rule="evenodd" clip-rule="evenodd" d="M2.3002 9.91601C2.3002 9.47418 1.94202 9.11601 1.5002 9.11601C1.05837 9.11601 0.700195 9.47418 0.700195 9.91601V12.3304C0.700195 16.6446 3.99167 20.19 8.20039 20.5924V24H9.80039V20.5923C14.0089 20.1897 17.3002 16.6444 17.3002 12.3304V9.91601C17.3002 9.47418 16.942 9.11601 16.5002 9.11601C16.0584 9.11601 15.7002 9.47418 15.7002 9.91601V12.3304C15.7002 16.0307 12.7005 19.0304 9.0002 19.0304C5.29989 19.0304 2.3002 16.0307 2.3002 12.3304V9.91601Z" fill="black"/>
<rect id="Rectangle 92004" x="5.51436" y="0.8" width="6.97143" height="15.0979" rx="3.48571" stroke="black" stroke-width="1.6" stroke-linejoin="round"/>
</g>
</svg>
