<svg width="12" height="17" viewBox="0 0 12 17" fill="none" xmlns="http://www.w3.org/2000/svg">
<path d="M5.99998 0C4.34312 0 2.99998 1.34315 2.99998 3V7.5C2.99998 9.15685 4.34312 10.5 5.99998 10.5C7.65683 10.5 8.99998 9.15685 8.99998 7.5V3C8.99998 1.34315 7.65683 0 5.99998 0Z" fill="#BFC6D2" fill-opacity="0.6"/>
<path d="M1.89998 7.00047C1.89998 6.50341 1.49703 6.10047 0.999975 6.10047C0.502919 6.10047 0.0999756 6.50341 0.0999756 7.00047V7.50047C0.0999756 10.4529 2.26867 12.8989 5.09998 13.3323V16.0005C5.09998 16.4975 5.50292 16.9005 5.99998 16.9005C6.49703 16.9005 6.89998 16.4975 6.89998 16.0005V13.3323C9.73128 12.8989 11.9 10.453 11.9 7.50047V7.00047C11.9 6.50341 11.497 6.10047 11 6.10047C10.5029 6.10047 10.1 6.50341 10.1 7.00047V7.50047C10.1 9.76484 8.26434 11.6005 5.99998 11.6005C3.73561 11.6005 1.89998 9.76484 1.89998 7.50047V7.00047Z" fill="#BFC6D2" fill-opacity="0.6"/>
</svg>
