<svg width="36" height="36" viewBox="0 0 36 36" fill="none" xmlns="http://www.w3.org/2000/svg">
<g id="Group 46621">
<path id="Vector" d="M25.0716 8.57143V4.47202C25.0716 3.68379 24.7609 2.92783 24.2084 2.37047C23.6558 1.81311 22.9066 1.5 22.1252 1.5H13.8751C13.0936 1.5 12.3444 1.81311 11.7919 2.37047C11.2394 2.92783 10.9287 3.68379 10.9287 4.47202V8.5655" stroke="#FF174E" stroke-width="2.4" stroke-miterlimit="10"/>
<path id="Vector_2" d="M1.5 8.04199H34.5" stroke="#FF174E" stroke-width="2.4" stroke-miterlimit="10" stroke-linecap="round"/>
<path id="Vector_3" d="M6.21387 14.4648V29.0036C6.21895 30.4604 6.86328 31.8561 8.00613 32.886C9.14898 33.9159 10.6976 34.4963 12.3136 34.5005H23.6875C25.3033 34.4963 26.8514 33.9159 27.994 32.8859C29.1365 31.856 29.7807 30.4602 29.7853 29.0036V14.4648" stroke="#FF174E" stroke-width="2.4" stroke-miterlimit="10" stroke-linecap="round"/>
</g>
</svg>
