<svg width="32" height="32" viewBox="0 0 32 32" fill="none" xmlns="http://www.w3.org/2000/svg">
<g id="Icons">
<path id="Union" fill-rule="evenodd" clip-rule="evenodd" d="M15.9971 7.75C15.7931 7.75061 15.5894 7.82872 15.4338 7.98431L9.49408 13.924C9.18166 14.2364 9.18166 14.743 9.49408 15.0554C9.8065 15.3678 10.313 15.3678 10.6255 15.0554L15.1998 10.481V23.45C15.1998 23.8918 15.558 24.25 15.9998 24.25C16.4417 24.25 16.7998 23.8918 16.7998 23.45V10.482L21.3735 15.0556C21.6859 15.368 22.1924 15.368 22.5048 15.0556C22.8173 14.7432 22.8173 14.2367 22.5048 13.9243L16.5838 8.00325C16.4379 7.84739 16.2302 7.75 15.9998 7.75C15.9989 7.75 15.998 7.75 15.9971 7.75Z" fill="white"/>
</g>
</svg>
